<svg height="199" viewBox="0 0 210 199" width="210" xmlns="http://www.w3.org/2000/svg"><g fill="#bdffd9" stroke-width="4"><circle cx="104.2" cy="98.1" r="91" stroke="#7ba68d" stroke-miterlimit="10"/><g stroke="#512500" stroke-linecap="round" stroke-linejoin="round"><path d="m44.2 54.5 11.2 7.5"/><path d="m80.9 147.2-7.5 11.3"/><path d="m147.3 60.1-7.5 11.3"/><path d="m171.6 102.3 7.5 8.4"/><path d="m96.5 156.3 7.5 8.4"/><path d="m114.2 31.7 7.5 8.4"/><path d="m137 112.4-13.8 11.7"/><path d="m172.1 62-12.8 17.5"/><path d="m61.4 131.5-12.7 17.5"/><path d="m96.3 70.9 7.9 6.6"/><path d="m143.5 144 8 6.5"/><path d="m33 98.1 16.8 8.4"/><path d="m80.6 102.3-6.9 10.1"/><path d="m77.2 24.6 14.8 9.3"/></g></g></svg>